<?xml version="1.0" standalone="no"?>
<!DOCTYPE svg PUBLIC "-//W3C//DTD SVG 20010904//EN"
 "http://www.w3.org/TR/2001/REC-SVG-20010904/DTD/svg10.dtd">
<svg version="1.0" xmlns="http://www.w3.org/2000/svg"
 width="513.000000pt" height="513.000000pt" viewBox="0 0 513.000000 513.000000"
 preserveAspectRatio="xMidYMid meet">
<metadata>
Created by potrace 1.11, written by Peter Selinger 2001-2013
</metadata>
<g transform="translate(0.000000,513.000000) scale(0.100000,-0.100000)"
fill="#000000" stroke="none">
<path d="M0 2565 l0 -2565 2565 0 2565 0 0 2565 0 2565 -2565 0 -2565 0 0
-2565z m2305 1793 c39 -7 469 -12 1253 -15 l1192 -3 0 -280 0 -280 -845 0
-845 0 0 -415 0 -415 615 0 615 0 0 -265 0 -265 -615 0 -615 0 0 -810 0 -810
-307 0 c-265 0 -322 -3 -409 -20 -152 -29 -384 -43 -539 -31 -401 31 -687 153
-930 396 -245 244 -396 572 -460 995 -25 165 -31 516 -11 686 47 402 185 729
431 1023 250 298 584 475 981 521 94 11 404 3 489 -12z"/>
<path d="M2442 4054 l3 -275 67 -29 c37 -15 96 -48 131 -73 l63 -45 124 248
c68 137 122 251 120 253 -20 17 -140 80 -210 110 -77 33 -256 87 -288 87 -10
0 -12 -59 -10 -276z"/>
<path d="M1850 3805 c-359 -76 -642 -384 -759 -825 -41 -151 -54 -289 -48
-510 5 -226 19 -323 68 -478 120 -375 368 -614 704 -677 162 -31 409 -9 553
48 l57 22 3 1190 c1 654 -1 1192 -6 1197 -36 36 -445 61 -572 33z"/>
<path d="M2717 1584 c-57 -63 -158 -141 -227 -175 l-50 -24 0 -287 c0 -159 4
-288 9 -288 26 0 179 57 267 100 105 51 234 141 295 206 l37 39 -138 238 c-75
130 -139 239 -141 241 -2 2 -26 -21 -52 -50z"/>
</g>
</svg>
